<svg xmlns="http://www.w3.org/2000/svg" viewBox="0 0 392.91 173.16"><title>logo-azura</title><g style="isolation:isolate"><path d="M188.6,113.38c2.25-4.33-.33-6.1-2.57-6.81H172.92a1.72,1.72,0,0,0-.24,0h-32a2.79,2.79,0,0,0-2.68,2.91.56.56,0,0,1,0,.1h-.11c.06,1.7.17,4.48.34,6,.26,2.23,1.09,4,2.88,3.87s2.66-1.76,3.12-2.44.73-1.28,1-1.7c1.42-2.25,10.78-2.82,14.9-2.94h10.08l-35,55.92c-.71,2.53,1,4,2.66,4.87h21.74l.06,0h24.8a2.69,2.69,0,0,0,2.66-2.56h0s0-.1,0-.16a0,0,0,0,1,0,0l0,0c0-1.7-.16-4.31-.31-5.78-.24-2.23-1.1-4.05-2.88-3.91s-2.64,1.81-3.12,2.47-.73,1.29-1,1.68c-1.13,1.88-2.83,2.57-5.7,2.83H159.68c-.07,0-.13.06-.21.06h-4.89Z" style="fill:#003b1e"/><path d="M259.67,166a1.36,1.36,0,0,1-.36-.1c-3.13-1.81-2.62-10.74-2.62-14.87V111.4c-.57-3.18-2.2-4.61-3.87-5.2l-9.61.81c-1.57.08-4.15.19-5.54.36-2.07.27-3.77,1.13-3.61,3s1.66,2.76,2.26,3.25a15.12,15.12,0,0,1,1.57,1c2.81,2,2.77,5.36,2.77,13v32.19c-3.81,1.9-7.32,3.33-11.8,3.33-11.14,0-13.17-9.86-13.17-20.7V111.6c-.95-4.32-4-5.16-6.13-5.16l-1.85.18a3.1,3.1,0,0,0-.38.08v-.06l-8.54.78c-.48,0-.95.07-1.31.11-2.1.2-3.78,1-3.68,2.9s1.58,2.82,2.2,3.35a6.19,6.19,0,0,1,1.66,1c2.45,2.33,2,6.12,2,12.9v18.07c0,6.54-.67,13.81,2.86,19.36,3.25,5.41,8.8,8,14.79,8,8.39,0,16.42-5.23,23.33-9.61,0,0,1,9.1,11.19,9.44l0,0s.4,0,1,0a30.28,30.28,0,0,0,3.58-.17c.32-.06.63-.08,1-.13l.8-.18c.49-.11,1-.19,1.32-.29,2-.66,3.48-1.85,3-3.59S260.34,166.36,259.67,166Z" style="fill:#003b1e"/><path d="M311.82,105.64c-9,0-15.43,8.81-20.18,16v-9.69c-.95-4.38-4.08-5.22-6.3-5.24l-1.88.18-.39.09v-.07l-8.71.82c-.53,0-1,0-1.37.1-2.13.2-3.87,1-3.78,3s1.65,2.85,2.25,3.36a7.11,7.11,0,0,1,1.7,1.06c2.29,2.12,2.15,5.45,2.11,11.07h-.13c.06.65.1,1.38.11,2.22v18.1c0,2.76-.11,5.65,0,8.47,0,6.18-.08,9.07-2,10.92-.5.24-1,.49-1.56.7-.67.4-2.5,1.25-2.87,3s1.48,2.71,3.57,3.3V173h.43a22.68,22.68,0,0,0,4.66,0h15.68V173a11,11,0,0,0,2.95-.41c2.05-.68,3.88-1.72,3.4-3.49s-2.39-2.49-3.08-2.85a19.23,19.23,0,0,1-3.27-1.45c-1.54-1.86-1.56-4.78-1.56-10.37V137.14c0-5.8.37-15.33,7-16.58.73,2,4.41,10.92,10.9,7.9a.19.19,0,0,0,.05.1c4.86-2.5,11.12-8.27,11.12-14.49C320.69,109.5,316.25,105.64,311.82,105.64Z" style="fill:#003b1e"/><path d="M374.52,165.15c-1.67,0-2.54-1.5-2.54-4.47V123.59a16.16,16.16,0,0,0-2.86-9.72,17.37,17.37,0,0,0-7.72-6,27.39,27.39,0,0,0-10.46-2,41.06,41.06,0,0,0-14.06,2.3,26.68,26.68,0,0,0-10,6q-3.64,3.66-3.65,7.45a5.91,5.91,0,0,0,2.16,4.49,8.46,8.46,0,0,0,5.86,2,8.83,8.83,0,0,0,6.39-2.49,7.13,7.13,0,0,0,1.61-9,9.08,9.08,0,0,1-.91-2.12c0-1.12.71-2.17,2.15-3.12a11,11,0,0,1,6.07-1.42c2.95,0,5.2.86,6.66,2.56s2.22,4.23,2.22,7.55V127h0v13.35h0v19.09c-3.14,3.14-6.23,4.7-9.23,4.7a6.9,6.9,0,0,1-5-2.2,8.51,8.51,0,0,1-2.13-6.18,15.12,15.12,0,0,1,3.61-10.22,24.13,24.13,0,0,1,2.59-2.53l5-3.15a2.68,2.68,0,0,0,.55-3.67,2.54,2.54,0,0,0-3.46-1.13l-6.67,4.16a117.79,117.79,0,0,0-10.23,6,24.94,24.94,0,0,0-6.56,6.27,14.81,14.81,0,0,0-2.49,8.57,11.92,11.92,0,0,0,4.1,9.3q4,3.65,11,3.65,9.69,0,19.62-8.75a11.68,11.68,0,0,0,3.74,6.74c1.78,1.44,4.25,2.14,7.38,2.14a13.48,13.48,0,0,0,7.11-1.83c.54-.35,1.15-.76,1.75-1.2a7.91,7.91,0,0,1,.63-.72C380.91,164.85,374.52,165.15,374.52,165.15Z" style="fill:#003b1e"/><path d="M131,167.31c-.76-1.69-2.49-2-3.24-2.27-.81-.13-1.36-.26-1.81-.37-2.81-.74-4-3.15-6-8.29l-1.36-3.81c-.63-1.67-1.34-3.53-2.13-5.69l-8.65-23.65-.06.09L91.42,78.79h-.1a5.91,5.91,0,0,0-6-4.26l-1.89.16-.38.09v0l-8.74.8c-.5,0-1,0-1.36.09-2.15.2-3.88,1.07-3.77,3a4.64,4.64,0,0,0,2.24,3.36A8.56,8.56,0,0,1,73.14,83a2.59,2.59,0,0,1,.43.51L74,84.79l-9.18,35.54-.12.19L53.23,163.94a5.28,5.28,0,0,1-1.16,1.8c-.4.26-.9.59-1.64,1s-2.24,1.42-2.36,3.19,1.66,2.66,3.89,2.88c1.5.15,4.22.21,5.89.25V173s.09,0,.12,0a2.54,2.54,0,0,0,.64-.14h.2l0,.14c1.68,0,4.41,0,5.9-.07,2.23-.14,4.07-.88,4-2.7s-1.63-2.81-2.26-3.32a9,9,0,0,1-1.61-1.07c-1.17-1.28,1-6.24,2.21-12l3.44-13.05a10.27,10.27,0,0,0,3.5.57H93.2a12.59,12.59,0,0,0,1.78-.14l.94,2.6a118.09,118.09,0,0,1,3.83,11.46l4.24,12c1.53,2.64,6.59,7.53,22.53,5.28a17.75,17.75,0,0,0,2.17-1.05C130.56,170.43,131.84,169,131,167.31ZM74,134.05a9.19,9.19,0,0,0-1.77.15l4.3-16.32c0-.23.06-.48.09-.69l3.93-15.26,7.51,20c0,.21,0,.41.07.65l.17-.07,1.42,3.8,2.71,7.74Z" style="fill:#003b1e"/><path d="M60.22,59.81a.08.08,0,0,1,0-.06,2.28,2.28,0,0,0-1.71-1.42h-.06a1.65,1.65,0,0,1-.37-.74c-.12-.72-4.05-.43-6.8,1.66A8.24,8.24,0,0,0,49,64.13c-.34,7.73-.37,15.27,3.21,22.27a2.48,2.48,0,0,0,.43.59A5.28,5.28,0,0,0,57,88.57c1.9-.28,3.64-1.73,5.29-4.44a1.8,1.8,0,0,0,.29-.76C63.84,74.88,62,66.31,60.22,59.81Zm-19.55,65a6.71,6.71,0,0,1-1.44-3.93c0-.08.13-.54.13-.54,1.5-6.94,3.17-14.78,9.45-18.09l0,0,0,0a2.22,2.22,0,0,1,.54-.34,3.52,3.52,0,0,1,2.88-.24c.68.24,1.25-.06,2,0A4.28,4.28,0,0,0,58,99.82c.43-.73.93-.84,1.66-1.16a10.23,10.23,0,0,0,.54-2.28l-.14-.33a2.21,2.21,0,0,0-.54-.92c0-.33-.47,0-.47,0s-.17,0-.48-.34a1.64,1.64,0,0,0-1.38-.69c-2.91-1.13-5-.46-7.31.26l-2,.62a17.12,17.12,0,0,0-2.29.8c-6.37,2.93-9.27,10-11.86,16.41-.83,2-1.59,3.89-2.44,5.61l0,0,0,.06c-2.35,10.22,6,16.64,12.76,21.83l2,1.54a16.14,16.14,0,0,0,4.6,2.14L53,134.69a28.2,28.2,0,0,1-10.64-6.1A9.63,9.63,0,0,0,40.67,124.76ZM22.45,98c1.48,1.31,7.76,4.18,8.72,4,2.12-.23,2-1.51,3.36-3.47.25-.36.94,0,1.19-.23a4.74,4.74,0,0,0,1.18-.66c.81-.66.14-2.39-.45-3.25a.09.09,0,0,0,0,0s0,0,0,0-.16-.16-.2-.22,0,0-.06,0h0a.83.83,0,0,0-.2-.22,2.08,2.08,0,0,0-.43-.32,1.77,1.77,0,0,0-.41-.86c-.27-.3-.52-.6-.8-.86a3.4,3.4,0,0,0-.92-.7l-.14-.13a1.06,1.06,0,0,0-.11-.09s0-.06,0-.06c-.25-.22-.54-.48-.79-.75-.79-.76-1.6-1.62-2.43-2.54s-1.81-1.94-2.77-2.9c-2.77-2.69-5.85-5-9.42-4.86h-.09a4,4,0,0,0-2.65,1.53A1.81,1.81,0,0,0,14,82c-1,1.54-.67,3.27-.44,4.66C13.62,87.22,19.41,95.27,22.45,98Zm21.61,50.46-.37-.3a2.22,2.22,0,0,0-.13-.55,4.55,4.55,0,0,0-.42-.83,2.92,2.92,0,0,0-2.4-1.08,1.8,1.8,0,0,0-1.35-1,7.2,7.2,0,0,0-5.09,1.52,2.28,2.28,0,0,0-.34.36c-.74,1.19-1.59,2.35-2.52,3.58-3.5,4.75-8.28,11.35-6.13,18.24a2.09,2.09,0,0,0,.68,1l.94.78a1.53,1.53,0,0,0,1.2.37c8.83-1.33,15.23-10.32,17.57-17.14a4.26,4.26,0,0,0,0-2.83A4.79,4.79,0,0,0,44.06,148.41ZM28.64,129.47a3.5,3.5,0,0,0-.65-2.71.31.31,0,0,0-.08-.11,4,4,0,0,0-1.17-1s0-.08,0-.13a.25.25,0,0,1,0-.11,2,2,0,0,0,0-2.34s-.44-.53-.44-.53a3.63,3.63,0,0,1-.25-.32,1.23,1.23,0,0,1-.25-.36v.06a2.24,2.24,0,0,0-2-2l-3.13,0c-5.86,0-12.48,0-17.93,3.52a3.39,3.39,0,0,0-.48.44c-.77,1-2.72,3.46-2,6.26a3.81,3.81,0,0,0,.76,2.14,7.06,7.06,0,0,0,2.17,1.62,5.54,5.54,0,0,1,.8.45,2,2,0,0,0,1.34.56c7.36.19,15.68.38,22.54-4.13A2.1,2.1,0,0,0,28.64,129.47Z" style="fill:#f7a600"/><path d="M52.79,105.67a13.83,13.83,0,0,0-8.61,17.24,13.52,13.52,0,0,0,9.43,9.27l7.16-26.43A12.45,12.45,0,0,0,52.79,105.67Z" style="fill:#e3000b;mix-blend-mode:multiply"/><path d="M377.09,36.61s-27.46,36.6-64.86,33.1c-3.75-13.55,3.06-32.1,16.24-38,25.11-11.27,40.53-3,40.53-3" style="fill:#181716;stroke:#181716;stroke-width:0.18592399999999998px"/><path d="M292.58,47.79s28.67,4.32,44,.42c12.19-3.1,32.74-14.54,39.39-15.27-3.72-9.77-20.75-19.83-41.16-20.18C311,12.38,293,24.93,292.58,47.79Z" style="fill:#e3000b"/><path d="M292.58,47.79s28.67,4.32,44,.42c12.19-3.1,32.74-14.54,39.39-15.27-3.72-9.77-20.75-19.83-41.16-20.18C311,12.38,293,24.93,292.58,47.79Z" style="fill:#c5c6c6;mix-blend-mode:multiply"/><path d="M324.73,27.93c-6.54-1-27.3-3.36-46.4-1.34C269.54,27.52,254,32.9,259.28,46s23.17,8.83,23.17,8.83-1.47,6.06,7.24,6.45c0,0,15.43.1,26.33-9a134.91,134.91,0,0,0,16.56-16" style="fill:#e3e3e3;mix-blend-mode:multiply"/><path d="M354.68,34.87s-2.08,3.91-8.29,4.54-3.86.11-8.82-1-28.82-1.47-37.58-.32S275.58,43,280.94,57.53c0,0,4,13.48,21.64,9.2l1.52-.38s-1.46,6.06,7.25,6.45c0,0,15.42.1,26.33-9a134.48,134.48,0,0,0,16.56-16l1.93-2,2.14-10.43-3.45-.8" style="fill:#c5c6c6;mix-blend-mode:multiply"/><path d="M346.54,55.58C329.59,63.9,317,64.34,304,63.8c-3.46-15.43,5.08-35.65,24.78-44.12,19.39-8.32,40.1,3.89,47.45,12.69C372.21,40.13,359.36,49.29,346.54,55.58Z" style="fill:#e3000b"/><path d="M359.07,31.63a5.38,5.38,0,1,0,6.58,4.2A5.52,5.52,0,0,0,359.07,31.63Z" style="fill:#181716;stroke:#181716;stroke-width:0.175478px"/><path d="M347,23.45a3.64,3.64,0,0,0-3,4.12,3.75,3.75,0,1,0,3-4.12Z" style="fill:#181716;stroke:#181716;stroke-width:0.18759399999999998px"/><path d="M311.43,44.76a4.53,4.53,0,1,0,5.62,3.53A4.69,4.69,0,0,0,311.43,44.76Z" style="fill:#181716;stroke:#181716;stroke-width:0.18759399999999998px"/><path d="M326,23.66a6.19,6.19,0,0,0-5.12,7.07A6.36,6.36,0,1,0,326,23.66Z" style="fill:#181716;stroke:#181716;stroke-width:0.131217px"/><path d="M334.77,38.71a9.66,9.66,0,0,0-8,11.09,10,10,0,0,0,19.53-3.7C345.33,41,340.17,37.69,334.77,38.71Z" style="fill:#181716;stroke:#181716;stroke-width:0.131217px"/><g style="opacity:0.5;mix-blend-mode:multiply"><path d="M262.43,63a31.85,31.85,0,0,0-4-.13c-2.74.06-5-.83-7.71-.67-3.22.09-7.18-.33-10.59,1.27-6.28,2.83-11.55,7.3-17.73,9.4a28.54,28.54,0,0,1-16.81,1.34c-5.42-1.18-11-3.61-17.4-3.74-7.23-.47-15.41,1.47-22.32,4.22-5.13,2-15.11,6-19,8.4,5.5-2.49,11.5-4.9,17.27-6.85-6.18,2.59-12.31,5.45-18.44,7.92-6.39,3.27-11.38,2.83-18.07,1.1,11.59,4.83,21.83-3.3,33.42-6.91,11.1-4.38,23.49-6.89,33.91-3.73-12.4-2.83-27.48,2-41.11,7.85-7,2.35-13.8,6.58-20.61,5-6.52-1.86-14.47-3.06-19.52,1.84-1.63,1.13-3.35,2.57-4.65,3.68,4.92-4.16,11.08-8.84,18.39-6.55,3.44.74,6.85,1.82,10.34,1.62s6.86-1.85,10.35-3c13.68-5.32,28-11.3,41-10.56,5.73.2,11.21,2.84,17.59,4,6.42,1.3,13.43-.29,19.27-3.11,3.29-1.42,6.39-3.08,9.41-4.66,6.32-3.69,11.55-4.44,18.81-3.81,6.08.22,17.1.83,19.55-1.1-2-.11-4.17,0-6.07-.21.73-.13,1.57-.3,2.42-.38a18.58,18.58,0,0,0-2.46-.06,4.23,4.23,0,0,0,1.53-.34A19.13,19.13,0,0,0,266,65a18.12,18.12,0,0,1-3.11.26c1.54-.26,3.49-.5,4.75-.86l-1.55-.12a12.18,12.18,0,0,0,2.22-.35c-1.31,0-2.47,0-3.83-.06a30.31,30.31,0,0,0-3.14-.13,23,23,0,0,0,3.85-.38,10.57,10.57,0,0,0-1.79-.1l.14-.09-.89-.09s-.06-.1,0-.16l0,.12" style="fill:#c5c6c6"/><path d="M262.36,63.66a30.36,30.36,0,0,0-3.7-.13,20,20,0,0,1-3.89-.33,20.14,20.14,0,0,0-3.65-.36c-1.27,0-2.56,0-3.8,0a16.06,16.06,0,0,0-7.12,1.28,65.79,65.79,0,0,0-6.58,3.59c-2.16,1.3-4.32,2.64-6.6,3.81a31.76,31.76,0,0,1-3.52,1.58c-1.19.44-2.4.89-3.65,1.23a30.31,30.31,0,0,1-7.63,1.16,28.11,28.11,0,0,1-7.66-.93c-5-1.23-9.69-3-14.65-3.44a45.6,45.6,0,0,0-14.85,1.21,61.93,61.93,0,0,0-7.19,2.16c-2.34.88-4.72,1.8-7,2.75s-4.67,1.92-7,2.94a67.87,67.87,0,0,0-6.73,3.33l-.51-1c5.67-2.55,11.44-4.86,17.33-6.85l.37,1c-6.16,2.58-12.23,5.4-18.46,7.9h0A21.06,21.06,0,0,1,136.8,87a33.43,33.43,0,0,1-9.31-1.35l.3-.89a18.73,18.73,0,0,0,8.37,1.43,30,30,0,0,0,8.41-1.86c5.47-1.94,10.68-4.71,16.33-6.46h0a75.74,75.74,0,0,1,16.81-4.62,40.3,40.3,0,0,1,17.37.93l-.19.74a36.7,36.7,0,0,0-10.46-.75A61.46,61.46,0,0,0,174,75.83a127.58,127.58,0,0,0-20,6.91h0c-3.31,1.11-6.49,2.6-9.82,3.78s-6.91,2-10.47,1.34a40.66,40.66,0,0,0-10.3-1.72,16.48,16.48,0,0,0-5.09.76,11.21,11.21,0,0,0-4.37,2.61v0h0c-1.61,1.12-3.13,2.38-4.63,3.65l-.35-.41A37.67,37.67,0,0,1,117.37,87a16,16,0,0,1,5-1.36,13.22,13.22,0,0,1,5.15.57h0c3.1.67,6.14,1.61,9.27,1.65s6.12-1.14,9.08-2.2c.74-.27,1.5-.54,2.23-.78l2.21-.86,4.42-1.71c3-1.14,5.91-2.25,8.91-3.28A85.11,85.11,0,0,1,182,74.56a41.35,41.35,0,0,1,9.5,0,72.54,72.54,0,0,1,9.21,2.31A44.3,44.3,0,0,0,210,78.77a29.77,29.77,0,0,0,9.34-1,37.29,37.29,0,0,0,4.47-1.51c.73-.3,1.45-.62,2.17-1l2.15-1c2.85-1.36,5.66-2.82,8.43-4.34a26.83,26.83,0,0,1,9-3,42.93,42.93,0,0,1,9.48-.07c3.15.13,6.31.26,9.47.25,1.58,0,3.16,0,4.73-.19a23.08,23.08,0,0,0,2.34-.32,5.67,5.67,0,0,0,2.17-.83l0,.09c-2-.11-4,0-6.06-.21v-.09a24.37,24.37,0,0,1,2.42-.38v.08a18.27,18.27,0,0,0-2.45-.06v-.08c.26,0,.52-.06.78-.11a2.06,2.06,0,0,0,.73-.22v.06A18,18,0,0,0,266,65l-1.56.2a8.22,8.22,0,0,1-1.57.06v-.05c1.59-.28,3.2-.44,4.76-.86v0l-1.55-.12v0a10.67,10.67,0,0,1,1.12-.13,3.57,3.57,0,0,0,1.09-.21v0c-1.16,0-2.32,0-3.49-.05s-2.32-.19-3.48-.15v0l1.94-.11a9.46,9.46,0,0,0,1.91-.27h0a11.87,11.87,0,0,0-1.79-.1h0l.14-.09h0l-.89-.08h0s-.06-.11,0-.16h0l0,.12,0-.12h0c-.05,0,0,.11,0,.16h0l.89.09h0l-.14.09h0a10.69,10.69,0,0,1,1.79.09h0a9.46,9.46,0,0,1-1.91.27l-1.94.12v0c1.16,0,2.32.09,3.49.14s2.32,0,3.48,0v0a3.53,3.53,0,0,1-1.11.22,10.19,10.19,0,0,0-1.11.13v0l1.56.12v0c-1.56.43-3.17.59-4.76.87v-.05a7.33,7.33,0,0,0,1.55-.08L266,65a18.22,18.22,0,0,1,3.13-.19h.11l-.09.06a2.32,2.32,0,0,1-.76.24l-.78.11v-.08a18.29,18.29,0,0,1,2.46.06v.08c-.82.08-1.62.24-2.42.39v-.09c2,.23,4,.09,6.06.2h.14l-.11.08a5.63,5.63,0,0,1-2.22.85,23.33,23.33,0,0,1-2.35.34c-1.58.14-3.16.19-4.74.2-3.16,0-6.32-.11-9.48-.23a43.17,43.17,0,0,0-9.44.09,26.83,26.83,0,0,0-8.9,3q-4.15,2.3-8.42,4.36c-.72.34-1.44.66-2.16,1s-1.44.67-2.17,1a37.24,37.24,0,0,1-4.5,1.53A29.9,29.9,0,0,1,210,79a44.77,44.77,0,0,1-9.31-1.85,69.8,69.8,0,0,0-9.17-2.28,40,40,0,0,0-9.41,0,84.74,84.74,0,0,0-18.34,4.49c-3,1-5.93,2.15-8.88,3.3l-4.41,1.72-2.21.87c-.77.25-1.49.51-2.24.78-3,1.06-6,2.32-9.23,2.25s-6.3-1-9.37-1.63h0a12.44,12.44,0,0,0-5-.54,15.25,15.25,0,0,0-4.83,1.33,37.17,37.17,0,0,0-8.35,5.72l-.35-.41c1.5-1.28,3-2.55,4.66-3.7l0,0a11.88,11.88,0,0,1,4.58-2.75,16.89,16.89,0,0,1,5.27-.8,40.33,40.33,0,0,1,10.41,1.71c3.4.64,6.89-.19,10.15-1.35s6.47-2.67,9.81-3.8h0a126,126,0,0,1,20.11-7,61.51,61.51,0,0,1,10.54-1.66,37.61,37.61,0,0,1,10.68.74l-.2.74a39.65,39.65,0,0,0-17-.86,75,75,0,0,0-16.6,4.62h0c-5.55,1.73-10.73,4.5-16.29,6.49a31.09,31.09,0,0,1-8.66,1.93,19.64,19.64,0,0,1-8.79-1.48l.3-.89a33,33,0,0,0,9.05,1.29,20,20,0,0,0,8.68-2.38h0c6.19-2.5,12.25-5.34,18.42-7.94l.37,1c-5.84,2-11.58,4.31-17.21,6.86l-.5-1a69.15,69.15,0,0,1,6.84-3.41c2.31-1,4.65-2,7-3s4.68-1.87,7.07-2.78a67,67,0,0,1,7.32-2.22A53.34,53.34,0,0,1,182.34,70a37.94,37.94,0,0,1,3.84-.17c.64,0,1.3,0,1.92.06s1.28,0,1.91.1c5.17.41,10,2.26,14.84,3.43a27.3,27.3,0,0,0,14.65-.25c1.2-.34,2.35-.77,3.54-1.2a33,33,0,0,0,3.38-1.53c2.22-1.14,4.35-2.48,6.52-3.79a66.71,66.71,0,0,1,6.7-3.68,17.66,17.66,0,0,1,7.67-1.42c1.28,0,2.53,0,3.78,0a21.39,21.39,0,0,1,3.89.37,18.11,18.11,0,0,0,3.65.3,33.19,33.19,0,0,1,3.86.13Z" style="fill:#c5c6c6"/></g><path d="M392.82,27.76c0,6.37-6.13,11.53-13.7,11.53s-13.69-5.16-13.69-11.53,6.13-11.54,13.69-11.54S392.82,21.39,392.82,27.76Z" style="fill:#181716;stroke:#181716;stroke-width:0.18592399999999998px"/><path d="M379.42,26.89a3.75,3.75,0,1,1-3.75-3.75A3.75,3.75,0,0,1,379.42,26.89Z" style="fill:#fff"/><path d="M389.8,26.89a3.75,3.75,0,1,1-3.75-3.75A3.75,3.75,0,0,1,389.8,26.89Z" style="fill:#fff"/><path d="M378.81,27.32a1.41,1.41,0,1,1-1.42-1.41A1.41,1.41,0,0,1,378.81,27.32Z" style="fill:#181716"/><path d="M389.62,27.32a1.41,1.41,0,1,1-1.41-1.41A1.41,1.41,0,0,1,389.62,27.32Z" style="fill:#181716"/><path d="M377.17,16.8S373.59,2.13,362.35,7" style="fill:none;stroke:#181716;stroke-miterlimit:10;stroke-width:1.5213500000000002px"/><path d="M382.57,17.36s4.15-14.53-8.05-15.84" style="fill:none;stroke:#181716;stroke-miterlimit:10;stroke-width:1.5213500000000002px"/><path d="M370,43.16h4.94s-1.19,7.29-6.12,12.22" style="fill:none;stroke:#181716;stroke-linecap:round;stroke-linejoin:round;stroke-width:1.5213500000000002px"/><path d="M363.55,47.8l4.76,2.3s-2.62,7.9-9,10.78" style="fill:none;stroke:#181716;stroke-linecap:round;stroke-linejoin:round;stroke-width:1.5213500000000002px"/><path d="M363.87,7.1a1.4,1.4,0,1,1-1.4-1.4A1.4,1.4,0,0,1,363.87,7.1Z" style="fill:#181716"/><path d="M375.16,1.4a1.4,1.4,0,1,1-1.4-1.4A1.4,1.4,0,0,1,375.16,1.4Z" style="fill:#181716"/></g></svg>